# Blender v2.92.0 OBJ File: ''
# www.blender.org
mtllib triangle.mtl
v 1.000000 1.000000 -1.000000
v 1.000000 -1.000000 -1.000000
v -1.000000 1.000000 -1.000000
v -1.000000 -1.000000 -1.000000
v -1.000000 1.000000 1.000000
v -1.000000 -1.000000 1.000000
vt 0.625000 0.500000
vt 0.625000 0.000000
vt 0.375000 0.000000
vt 0.375000 0.500000
vt 0.375000 0.250000
vt 0.625000 0.250000
vn 0.7071 0.0000 0.7071
vn 0.0000 -1.0000 0.0000
vn -1.0000 0.0000 0.0000
vn 0.0000 1.0000 0.0000
vn 0.0000 0.0000 -1.0000
usemtl Material
s off
f 1/1/1 5/2/1 6/3/1 2/4/1
f 4/5/2 2/4/2 6/3/2
f 6/3/3 5/2/3 3/6/3 4/5/3
f 3/6/4 5/2/4 1/1/4
f 4/5/5 3/6/5 1/1/5 2/4/5
